<svg xmlns="http://www.w3.org/2000/svg" viewBox="0 0 32.862 32.065">
    <defs>
        <style>
            .cls-1{fill:#008c44}
        </style>
    </defs>
    <g id="icono_contacto" transform="translate(-175 -660)">
        <path id="Path_108" d="M10.3 14.9a7.5 7.5 0 1 0 0-15 7.732 7.732 0 0 0-7.5 7.657 7.457 7.457 0 0 0 7.5 7.343zm0-13.4a6.062 6.062 0 1 1-6.064 6.057A6.059 6.059 0 0 1 10.3 1.5z" class="cls-1" data-name="Path 108" transform="translate(176.667 660.1)"/>
        <path id="Path_109" d="M29.831 10.26a.8.8 0 0 0-.957 0l-1.914 1.914-4.467 4.467a11.75 11.75 0 0 0-10.529-6.062A12.052 12.052 0 0 0 0 22.543a.686.686 0 0 0 .638.638h17.548l-.638 1.755c-.16.319 0 .479.16.8a.586.586 0 0 0 .479.16h.16l4.945-1.6 7.5-7.5 1.908-1.91a.8.8 0 0 0 0-.957zm-6.54 12.283L20.9 20.15l6.541-6.541L29.831 16zM1.436 21.9a10.563 10.563 0 0 1 19.941-4.148l-1.914 1.914a.156.156 0 0 1-.16.16l-.638 1.914-17.229.16zm18.824-.479l1.755 1.755-2.552.8zm10.529-6.381L28.4 12.652l.8-.8 2.393 2.393z" class="cls-1" data-name="Path 109" transform="translate(175 666.172)"/>
    </g>
</svg>
