<svg xmlns="http://www.w3.org/2000/svg" viewBox="0 0 2451.62 1217.35"><defs><style>.cls-1,.cls-2,.cls-4{fill:none;stroke:#fff;stroke-miterlimit:10;}.cls-1{stroke-width:105.34px;}.cls-2{stroke-width:110.61px;}.cls-3{fill:#1f140f;}.cls-4{stroke-width:121.14px;}.cls-5{fill:#9c9ba0;}.cls-6{fill:#fff;}</style></defs><title>Recurso 4</title><g id="Capa_2" data-name="Capa 2"><g id="Capa_1-2" data-name="Capa 1"><path class="cls-1" d="M1879.8,885.05l32.47,42.64a33,33,0,0,1,7.21,20.33q0,10.82-13.12,20.9T1882.26,979q-11,0-20.83-13.28l-52.8-70.51v55.42q0,28.53-32.46,28.53t-32.47-28.53V786.33q0-28.53,32.47-28.53h73.46q27.22,0,45.26,20.91t18,44.85Q1912.93,866.36,1879.8,885.05Zm-71.17-82.64v50.5h18.7q27.54,0,27.55-25.25t-27.55-25.25Z"/><path class="cls-1" d="M2000.33,940.14l-6.24,16.73q-8.35,22.3-27.46,22.3t-27.38-11.72q-8.3-11.73-8.28-21.07a44,44,0,0,1,4.09-18.37l67.56-147.9q10.17-22.3,31-22.31t31,22.31L2132.49,928a43.71,43.71,0,0,1,4.27,18.53q0,9.35-8,21t-27.46,11.64q-19.44,0-27.8-22.3l-6.23-16.73Zm47.55-52.47-14.1-38.37-14.1,38.37Z"/><path class="cls-1" d="M2215.62,905.38v45.26q0,28.53-32.46,28.53t-32.47-28.53V787q0-28.53,32.47-28.53h73.46q27.38,0,45.83,21.56t17.71,51.33a78.72,78.72,0,0,1-20.42,51.9q-19.66,22.13-51,22.13Zm0-103v50.5h18.7q27.54,0,27.55-25.25t-27.55-25.25Z"/><path class="cls-1" d="M2399,950.64q0,28.53-32.47,28.53T2334,950.64V786.33q0-28.53,32.46-28.53T2399,786.33Z"/><path class="cls-1" d="M1046.19,940a14.46,14.46,0,0,1,18-1.92c2.5,1.55-4.67-5.06,124.74,125.84a14.53,14.53,0,0,1-.06,20.43L1128.54,1143,987,998.57Z"/><path class="cls-1" d="M1228.51,845a158.25,158.25,0,0,1,63.73,13.69A14.51,14.51,0,0,0,1298,860l164.6,1.06a29,29,0,1,1-.37,58L1344,918.23a14.5,14.5,0,0,0-.18,29l118.26.77A57.9,57.9,0,0,0,1520,882.8c83.29-84.52,95-96.39,95.54-97a29,29,0,1,1,44,37.74l-131,154.58a100.9,100.9,0,0,1-70.44,27.81l-192.69-1.25a72,72,0,0,0-50.45,20l-12.4,11.8L1089.72,922.22C1116.58,872.6,1166.57,844.61,1228.51,845Z"/><path class="cls-2" d="M184.37,519.62v90q0,56.71-64.53,56.71T55.3,609.57V284.31q0-56.71,64.54-56.71h146q54.42,0,91.09,42.86t35.2,102q-1.47,59.14-40.58,103.15t-101.36,44Zm0-204.67V415.32h37.15q54.76,0,54.75-50.19T221.52,315Z"/><path class="cls-2" d="M690.19,479.21l64.53,84.73q14.34,18.91,14.34,40.42T743,645.91Q716.91,666,695.08,666t-41.39-26.39l-105-140.15V609.57q0,56.71-64.53,56.71t-64.53-56.71V283q0-56.7,64.53-56.7h146q54.1,0,90,41.55T756,357Q756,442.05,690.19,479.21ZM548.74,315V415.32H585.9q54.75,0,54.75-50.19T585.9,315Z"/><path class="cls-2" d="M861.3,666.28q-64.54,0-64.54-56.71V283q0-56.7,64.54-56.7h156.43q50.19,0,50.2,51.82t-50.2,51.82h-91.9v63.23h78.87q50.17,0,50.19,52.14t-50.19,52.15H925.83v65.18h91.9q50.19,0,50.2,51.82t-50.2,51.82Z"/><path class="cls-3" d="M184.37,519.62v90q0,56.71-64.53,56.71T55.3,609.57V284.31q0-56.71,64.54-56.71h146q54.42,0,91.09,42.86t35.2,102q-1.47,59.14-40.58,103.15t-101.36,44Zm0-204.67V415.32h37.15q54.76,0,54.75-50.19T221.52,315Z"/><path class="cls-3" d="M690.19,479.21l64.53,84.73q14.34,18.91,14.34,40.42T743,645.91Q716.91,666,695.08,666t-41.39-26.39l-105-140.15V609.57q0,56.71-64.53,56.71t-64.53-56.71V283q0-56.7,64.53-56.7h146q54.1,0,90,41.55T756,357Q756,442.05,690.19,479.21ZM548.74,315V415.32H585.9q54.75,0,54.75-50.19T585.9,315Z"/><path class="cls-3" d="M861.3,666.28q-64.54,0-64.54-56.71V283q0-56.7,64.54-56.7h156.43q50.19,0,50.2,51.82t-50.2,51.82h-91.9v63.23h78.87q50.17,0,50.19,52.14t-50.19,52.15H925.83v65.18h91.9q50.19,0,50.2,51.82t-50.2,51.82Z"/><path class="cls-2" d="M1861.21,329.94V610.22q0,56.71-64.53,56.72t-64.53-56.72V329.94H1667q-52.15,0-52.15-51.82T1667,226.3h260.08q52.14,0,52.14,51.82t-52.14,51.82Z"/><path class="cls-2" d="M2064.26,588.71,2051.87,622q-16.62,44.34-54.59,44.33T1942.86,643q-16.47-23.29-16.46-41.88a87.25,87.25,0,0,1,8.15-36.5l134.27-294q20.2-44.33,61.6-44.32T2192,270.62L2327,564.6a86.7,86.7,0,0,1,8.47,36.83q0,18.57-16,41.71t-54.59,23.14q-38.62,0-55.24-44.33l-12.39-33.24Zm94.51-104.29-28-76.27-28,76.27Z"/><path class="cls-3" d="M1861.21,329.94V610.22q0,56.71-64.53,56.72t-64.53-56.72V329.94H1667q-52.15,0-52.15-51.82T1667,226.3h260.08q52.14,0,52.14,51.82t-52.14,51.82Z"/><path class="cls-3" d="M2064.26,588.71,2051.87,622q-16.62,44.34-54.59,44.33T1942.86,643q-16.47-23.29-16.46-41.88a87.25,87.25,0,0,1,8.15-36.5l134.27-294q20.2-44.33,61.6-44.32T2192,270.62L2327,564.6a86.7,86.7,0,0,1,8.47,36.83q0,18.57-16,41.71t-54.59,23.14q-38.62,0-55.24-44.33l-12.39-33.24Zm94.51-104.29-28-76.27-28,76.27Z"/><path class="cls-3" d="M1879.8,885.05l32.47,42.64a33,33,0,0,1,7.21,20.33q0,10.82-13.12,20.9T1882.26,979q-11,0-20.83-13.28l-52.8-70.51v55.42q0,28.53-32.46,28.53t-32.47-28.53V786.33q0-28.53,32.47-28.53h73.46q27.22,0,45.26,20.91t18,44.85Q1912.93,866.36,1879.8,885.05Zm-71.17-82.64v50.5h18.7q27.54,0,27.55-25.25t-27.55-25.25Z"/><path class="cls-3" d="M2000.33,940.14l-6.24,16.73q-8.35,22.3-27.46,22.3t-27.38-11.72q-8.3-11.73-8.28-21.07a44,44,0,0,1,4.09-18.37l67.56-147.9q10.17-22.3,31-22.31t31,22.31L2132.49,928a43.71,43.71,0,0,1,4.27,18.53q0,9.35-8,21t-27.46,11.64q-19.44,0-27.8-22.3l-6.23-16.73Zm47.55-52.47-14.1-38.37-14.1,38.37Z"/><path class="cls-3" d="M2215.62,905.38v45.26q0,28.53-32.46,28.53t-32.47-28.53V787q0-28.53,32.47-28.53h73.46q27.38,0,45.83,21.56t17.71,51.33a78.72,78.72,0,0,1-20.42,51.9q-19.66,22.13-51,22.13Zm0-103v50.5h18.7q27.54,0,27.55-25.25t-27.55-25.25Z"/><path class="cls-3" d="M2399,950.64q0,28.53-32.47,28.53T2334,950.64V786.33q0-28.53,32.46-28.53T2399,786.33Z"/><path id="_Trazado_compuesto_" data-name="&lt;Trazado compuesto&gt;" class="cls-4" d="M1375.39,367.5c-51.19-12.63-86.82-21.52-103.59-42.28-7.24-8.85-11-19.91-11-34.29-.1-32.67,22.89-58.74,77.71-58.9a157.44,157.44,0,0,1,24.3,1.7c42,6.36,64.58,30.46,72.09,66.29l109.49-30.12c-14.79-56.24-49.53-95.24-102.58-115.64a242.65,242.65,0,0,0-55.48-13.73l-.23-79.78-95.2.28.23,78.87c-93.21,12.75-148.85,66.76-148.59,157.13.16,53.48,18.93,88,46.59,111.4,27,22.81,62.45,35.06,97.17,43.95,72.19,19,140.43,24.62,140.61,86.17.12,41.3-31.51,61.58-76.73,61.72-64.42.19-95.31-39.13-101.19-79.49l-114.32,31.11c17.6,96.07,91.74,132.44,165.8,141.83l.23,78.81,95.21-.29-.24-78.8c92.66-13.67,154.85-67.15,155.25-160.34a13,13,0,0,0,.05-1.65C1550.57,412.2,1451.44,386.55,1375.39,367.5Z"/><g id="_Grupo_" data-name="&lt;Grupo&gt;"><path id="_Trazado_compuesto_2" data-name="&lt;Trazado compuesto&gt;" class="cls-5" d="M1421.42,719.09l.23,78.84-95.19.28-25.81-25.66,25.58-53.18c-74.07-9.4-148.22-45.72-165.81-141.82l88.52-56.77,25.81,25.66c5.89,40.37,36.78,79.7,101.2,79.51,45.2-.14,76.87-20.42,76.74-61.77-.18-61.54-68.46-67.11-140.64-86.12-70.24-18.06-143.41-49.58-143.72-155.35-.27-90.39,55.34-144.4,148.57-157.17L1290.86,61l95.19-.28,25.81,25.66.24,79.81c84.65,11.29,138.63,55.36,158.07,129.34l-109.53,30.13L1434.83,300l14.46-4c-15-24.39-42.41-38.46-85-38.33-54.81.16-77.81,26.19-77.71,58.88.14,48.08,41.52,58.53,114.65,76.59,76,19,175.13,44.67,175.48,163.9C1577,651.32,1514.65,705.35,1421.42,719.09Z"/><path id="_Trazado_compuesto_3" data-name="&lt;Trazado compuesto&gt;" class="cls-3" d="M1375.39,367.5c-51.19-12.63-86.82-21.52-103.59-42.28-7.24-8.85-11-19.91-11-34.29-.1-32.67,22.89-58.74,77.71-58.9a157.44,157.44,0,0,1,24.3,1.7c42,6.36,64.58,30.46,72.09,66.29l109.49-30.12c-14.79-56.24-49.53-95.24-102.58-115.64a242.65,242.65,0,0,0-55.48-13.73l-.23-79.78-95.2.28.23,78.87c-93.21,12.75-148.85,66.76-148.59,157.13.16,53.48,18.93,88,46.59,111.4,27,22.81,62.45,35.06,97.17,43.95,72.19,19,140.43,24.62,140.61,86.17.12,41.3-31.51,61.58-76.73,61.72-64.42.19-95.31-39.13-101.19-79.49l-114.32,31.11c17.6,96.07,91.74,132.44,165.8,141.83l.23,78.81,95.21-.29-.24-78.8c92.66-13.67,154.85-67.15,155.25-160.34a13,13,0,0,0,.05-1.65C1550.57,412.2,1451.44,386.55,1375.39,367.5Z"/></g><ellipse class="cls-6" cx="1342.52" cy="532.03" rx="40.78" ry="27.62"/><circle class="cls-6" cx="1351.38" cy="300.61" r="35.62"/><path class="cls-6" d="M1054.13,351.9S1088,457.5,1077.6,517.47,1208,477.05,1208,477.05s-96.47-109.51-104.29-151.22S1054.13,351.9,1054.13,351.9Z"/><path class="cls-6" d="M1546.94,685.1s94.57,56,181.18,0c0,0-41.31-255.85-34.64-309.16s-86.62-13.32-101.28-49.3-72-16-85.28-8-18.66,33.32,1.33,40,109.27,150.58,81.29,231.87S1546.94,685.1,1546.94,685.1Z"/><polygon class="cls-6" points="1892.38 358.42 1892.38 543.54 2003.19 358.42 1892.38 358.42"/><path class="cls-3" d="M1228.51,841.8a158.25,158.25,0,0,1,63.73,13.69,14.51,14.51,0,0,0,5.8,1.26l164.6,1.06a29,29,0,1,1-.37,58L1344,915a14.5,14.5,0,0,0-.18,29l118.26.77A57.9,57.9,0,0,0,1520,879.59c83.29-84.52,95-96.39,95.54-97a29,29,0,1,1,44,37.74l-131,154.58a100.9,100.9,0,0,1-70.44,27.81l-192.69-1.25a72,72,0,0,0-50.45,20l-12.4,11.81L1089.72,919C1116.58,869.39,1166.57,841.4,1228.51,841.8Z"/><path class="cls-3" d="M1046.19,936.81a14.46,14.46,0,0,1,18-1.92c2.5,1.55-4.67-5.06,124.74,125.84a14.53,14.53,0,0,1-.06,20.43l-60.29,58.64L987,995.36Z"/><path class="cls-6" d="M1820.68,697.08s94.54,94.78,127.11,74.74c8.47-5.22,76.26-82.71,76.26-82.71l-131.67-57.17Z"/><path class="cls-6" d="M2024.05,697.08s94.32,77.4,126.89,57.36c8.48-5.22,95.61-44.47,95.61-44.47-32.22-60.18-103.4-95.3-150.8-78Z"/></g></g></svg>